<svg id="visual" viewBox="0 0 900 600" width="900" height="600" xmlns="http://www.w3.org/2000/svg" xmlns:xlink="http://www.w3.org/1999/xlink" version="1.1"><rect x="0" y="0" width="900" height="600" fill="#00ffff"></rect><defs><linearGradient id="grad1_0" x1="33.3%" y1="0%" x2="100%" y2="100%"><stop offset="20%" stop-color="#00ffff" stop-opacity="1"></stop><stop offset="80%" stop-color="#00ffff" stop-opacity="1"></stop></linearGradient></defs><defs><linearGradient id="grad2_0" x1="0%" y1="0%" x2="66.7%" y2="100%"><stop offset="20%" stop-color="#00ffff" stop-opacity="1"></stop><stop offset="80%" stop-color="#00ffff" stop-opacity="1"></stop></linearGradient></defs><g transform="translate(900, 0)"><path d="M0 486.7C-51.6 441.5 -103.2 396.3 -152.3 367.7C-201.4 339.1 -247.9 327 -301.9 301.9C-356 276.9 -417.6 238.8 -449.7 186.3C-481.8 133.8 -484.3 66.9 -486.7 0L0 0Z" fill="#000"></path></g><g transform="translate(0, 600)"><path d="M0 -486.7C66.9 -473.1 133.9 -459.4 173.7 -419.4C213.6 -379.4 226.4 -313.1 275.1 -275.1C323.8 -237.1 408.4 -227.4 449.7 -186.3C491 -145.2 488.9 -72.6 486.7 0L0 0Z" fill="#000"></path></g></svg>